<svg width="22" height="28" viewBox="0 0 22 28" fill="none" xmlns="http://www.w3.org/2000/svg">
<path fill-rule="evenodd" clip-rule="evenodd" d="M21.9375 24C21.9375 24.9113 21.575 25.7863 20.9312 26.4313C20.2862 27.075 19.4112 27.4375 18.5 27.4375H3.5C2.58875 27.4375 1.71375 27.075 1.06875 26.4313C0.425 25.7863 0.0625 24.9113 0.0625 24V4C0.0625 3.08875 0.425 2.21375 1.06875 1.56875C1.71375 0.925 2.58875 0.5625 3.5 0.5625H14.2325C14.8125 0.5625 15.3687 0.7925 15.7787 1.20375L21.2962 6.72125C21.7075 7.13125 21.9375 7.6875 21.9375 8.2675V24ZM20.0625 24V8.2675C20.0625 8.185 20.03 8.105 19.9713 8.04625L14.4537 2.52875C14.395 2.47 14.315 2.4375 14.2325 2.4375H3.5C3.085 2.4375 2.68875 2.6025 2.395 2.895C2.1025 3.18875 1.9375 3.585 1.9375 4V24C1.9375 24.415 2.1025 24.8113 2.395 25.105C2.68875 25.3975 3.085 25.5625 3.5 25.5625H18.5C18.915 25.5625 19.3113 25.3975 19.605 25.105C19.8975 24.8113 20.0625 24.415 20.0625 24Z" fill="#0174BD"/>
<path fill-rule="evenodd" clip-rule="evenodd" d="M13.8125 2.125C13.8125 1.6075 14.2325 1.1875 14.75 1.1875C15.2675 1.1875 15.6875 1.6075 15.6875 2.125V6.5C15.6875 6.6725 15.8275 6.8125 16 6.8125H20.375C20.8925 6.8125 21.3125 7.2325 21.3125 7.75C21.3125 8.2675 20.8925 8.6875 20.375 8.6875H16C14.7912 8.6875 13.8125 7.70875 13.8125 6.5V2.125Z" fill="#0174BD"/>
<path fill-rule="evenodd" clip-rule="evenodd" d="M6 13.0625C5.4825 13.0625 5.0625 12.6425 5.0625 12.125C5.0625 11.6075 5.4825 11.1875 6 11.1875H16C16.5175 11.1875 16.9375 11.6075 16.9375 12.125C16.9375 12.6425 16.5175 13.0625 16 13.0625H6Z" fill="#0174BD"/>
<path fill-rule="evenodd" clip-rule="evenodd" d="M6 17.4375C5.4825 17.4375 5.0625 17.0175 5.0625 16.5C5.0625 15.9825 5.4825 15.5625 6 15.5625H16C16.5175 15.5625 16.9375 15.9825 16.9375 16.5C16.9375 17.0175 16.5175 17.4375 16 17.4375H6Z" fill="#0174BD"/>
<path fill-rule="evenodd" clip-rule="evenodd" d="M6 21.8125C5.4825 21.8125 5.0625 21.3925 5.0625 20.875C5.0625 20.3575 5.4825 19.9375 6 19.9375H11.625C12.1425 19.9375 12.5625 20.3575 12.5625 20.875C12.5625 21.3925 12.1425 21.8125 11.625 21.8125H6Z" fill="#0174BD"/>
</svg>
