<svg width="14" height="17" viewBox="0 0 14 17" fill="none" xmlns="http://www.w3.org/2000/svg">
<path d="M5.24658 15.8875V10.0542C5.24658 9.68583 5.40015 9.33256 5.6735 9.07209C5.94684 8.81163 6.31758 8.6653 6.70416 8.6653V8.6653C7.09073 8.6653 7.46147 8.81163 7.73482 9.07209C8.00817 9.33256 8.16173 9.68583 8.16173 10.0542V13.1097H10.4938C11.1124 13.1097 11.7055 13.3439 12.1429 13.7606C12.5803 14.1774 12.826 14.7426 12.826 15.332V15.8875" stroke="white" stroke-width="1.5" stroke-linecap="round" stroke-linejoin="round"/>
<path d="M2.78611 10.4541C2.01191 9.71587 1.4848 8.77545 1.27141 7.75177C1.05803 6.72809 1.16795 5.6671 1.58729 4.70294C2.00663 3.73878 2.71655 2.91474 3.62731 2.33498C4.53807 1.75522 5.60877 1.44579 6.70407 1.44579C7.79936 1.44579 8.87006 1.75522 9.78082 2.33498C10.6916 2.91474 11.4015 3.73878 11.8208 4.70294C12.2402 5.6671 12.3501 6.72809 12.1367 7.75177C11.9233 8.77545 11.3962 9.71587 10.622 10.4541" stroke="white" stroke-width="1.5" stroke-linecap="round" stroke-linejoin="round"/>
</svg>
