<svg width="20" height="28" viewBox="0 0 20 28" fill="none" xmlns="http://www.w3.org/2000/svg">
<path d="M17.5 9.625H16.25V7.125C16.25 3.675 13.45 0.875 10 0.875C6.55 0.875 3.75 3.675 3.75 7.125V9.625H2.5C1.125 9.625 0 10.75 0 12.125V24.625C0 26 1.125 27.125 2.5 27.125H17.5C18.875 27.125 20 26 20 24.625V12.125C20 10.75 18.875 9.625 17.5 9.625ZM6.25 7.125C6.25 5.05 7.925 3.375 10 3.375C12.075 3.375 13.75 5.05 13.75 7.125V9.625H6.25V7.125ZM17.5 24.625H2.5V12.125H17.5V24.625ZM10 20.875C11.375 20.875 12.5 19.75 12.5 18.375C12.5 17 11.375 15.875 10 15.875C8.625 15.875 7.5 17 7.5 18.375C7.5 19.75 8.625 20.875 10 20.875Z" fill="#0174BD"/>
</svg>
