<svg width="13" height="13" viewBox="0 0 13 13" fill="none" xmlns="http://www.w3.org/2000/svg">
<path d="M11.8676 10.5357V10.4633L11.8471 10.3939C11.7876 10.1925 11.6483 10.0409 11.5362 9.93995C11.4134 9.82933 11.262 9.72573 11.0979 9.6301C10.7683 9.43801 10.3378 9.24924 9.85556 9.0831C8.89212 8.7512 7.65887 8.48806 6.49515 8.48806C5.33142 8.48806 4.09806 8.7512 3.1343 9.08422C2.65191 9.25091 2.22109 9.44057 1.89122 9.63406C1.72697 9.73041 1.57531 9.83491 1.45239 9.94668C1.33974 10.0491 1.20149 10.2017 1.14267 10.4035L1.12269 10.472V10.5434V11.3095V11.8095H1.62269H11.3676H11.8676V11.3095V10.5357ZM8.61931 3.57139C8.61931 2.42159 7.64156 1.52377 6.49515 1.52377C5.34874 1.52377 4.371 2.42159 4.371 3.57139C4.371 4.72119 5.34874 5.61901 6.49515 5.61901C7.64156 5.61901 8.61931 4.72119 8.61931 3.57139ZM3.74684 3.57139C3.74684 2.15988 4.95359 0.976151 6.49515 0.976151C8.03672 0.976151 9.24346 2.15988 9.24346 3.57139C9.24346 4.9829 8.03672 6.16663 6.49515 6.16663C4.95359 6.16663 3.74684 4.9829 3.74684 3.57139ZM0.498535 10.5357C0.498535 10.2142 0.663562 9.88925 1.03892 9.55914C1.41652 9.22706 1.96459 8.93046 2.61206 8.6833C3.90683 8.18906 5.47043 7.94044 6.49515 7.94044C7.51987 7.94044 9.08348 8.18906 10.3782 8.6833C11.0257 8.93046 11.5738 9.22706 11.9514 9.55914C12.3267 9.88925 12.4918 10.2142 12.4918 10.5357V12.3571H0.498535V10.5357Z" fill="white" stroke="white"/>
</svg>
