<svg width="53" height="51" viewBox="0 0 53 51" fill="none" xmlns="http://www.w3.org/2000/svg">
<path d="M52.09 50.8395H49.59V48.1895H2.5V50.8395H0V45.6895H52.09V50.8395Z" fill="#202632"/>
<path d="M52.09 10.58H49.59V7.92999H30.35V6.67999C30.35 4.36999 28.47 2.5 26.17 2.5C23.87 2.5 21.99 4.37999 21.99 6.67999V7.92999H2.51001V10.58H0.0100098V5.42999H19.6C20.19 2.33999 22.91 0 26.17 0C29.43 0 32.15 2.33999 32.74 5.42999H52.1V10.58H52.09Z" fill="#202632"/>
<path d="M48.7701 48.1902H3.55005V11.1602H6.05005V45.6902H46.2701V11.1602H48.7701V48.1902Z" fill="#202632"/>
<path d="M30.5101 21.6802H21.5901V15.1602H24.0901V19.1802H28.0101V15.1602H30.5101V21.6802Z" fill="#202632"/>
<path d="M18.19 21.6802H9.27002V15.1602H11.77V19.1802H15.69V15.1602H18.19V21.6802Z" fill="#202632"/>
<path d="M43.0499 21.6802H34.1299V15.1602H36.6299V19.1802H40.5499V15.1602H43.0499V21.6802Z" fill="#202632"/>
<path d="M30.5101 31.9302H21.5901V25.4102H24.0901V29.4302H28.0101V25.4102H30.5101V31.9302Z" fill="#202632"/>
<path d="M18.19 31.9302H9.27002V25.4102H11.77V29.4302H15.69V25.4102H18.19V31.9302Z" fill="#202632"/>
<path d="M43.0499 31.9302H34.1299V25.4102H36.6299V29.4302H40.5499V25.4102H43.0499V31.9302Z" fill="#202632"/>
<path d="M30.5101 42.1802H21.5901V35.6602H24.0901V39.6802H28.0101V35.6602H30.5101V42.1802Z" fill="#202632"/>
<path d="M18.19 42.1802H9.27002V35.6602H11.77V39.6802H15.69V35.6602H18.19V42.1802Z" fill="#202632"/>
<path d="M43.0499 42.1802H34.1299V35.6602H36.6299V39.6802H40.5499V35.6602H43.0499V42.1802Z" fill="#202632"/>
<path d="M27.4099 6.57031H24.9099V10.0103H27.4099V6.57031Z" fill="#202632"/>
</svg>
