<svg width="58" height="45" viewBox="0 0 58 45" fill="none" xmlns="http://www.w3.org/2000/svg">
<path d="M41.0819 19.2212L39.0819 18.3136L40.9969 14.0854H36.1321V2.04688H57.637V14.0854H46.9968V11.8885H55.441V4.24602H38.3281V11.8885H44.402L41.0819 19.2212Z" fill="#202632"/>
<path d="M51.3062 6.84766H48.6091V9.04462H51.3062V6.84766Z" fill="#202632"/>
<path d="M46.5523 6.84766H43.8552V9.04462H46.5523V6.84766Z" fill="#202632"/>
<path d="M20.9952 44.495C9.51394 44.495 0.973834 42.8565 0.888869 42.839L0 42.6667V36.0562C0 32.9822 1.82131 30.2092 4.63824 28.9918L13.4049 25.0801L14.2982 27.0872L5.52057 31.0055C3.49665 31.8804 2.19603 33.8614 2.19603 36.0562V40.8384C4.63388 41.2442 11.8559 42.298 20.9952 42.298C30.1344 42.298 37.3608 41.2442 39.7943 40.8384V36.0562C39.7943 33.8614 38.4937 31.8804 36.4807 31.0099L27.6835 27.1418L28.5658 25.1281L37.3564 28.994C40.169 30.2092 41.9882 32.9822 41.9882 36.0562V42.6667L41.0993 42.839C41.0143 42.8543 32.472 44.495 20.993 44.495H20.9952Z" fill="#202632"/>
<path d="M12.9735 12.6962C12.6097 12.6962 12.2437 12.6853 11.8733 12.6656L10.8777 12.6111L10.8385 11.6141C10.8276 11.3501 10.6228 5.09736 14.6706 2.14335C19.03 -1.03755 24.7445 -0.319775 27.91 1.96882L28.5222 2.4117L28.3283 3.14257C27.069 7.87466 20.9167 12.6984 12.9735 12.6984V12.6962ZM21.3437 2.20445C19.5659 2.20445 17.6596 2.67787 15.9625 3.91707C13.7055 5.56425 13.1804 8.83023 13.0628 10.497C19.2958 10.4534 24.4612 6.99107 25.9536 3.32583C24.7662 2.67568 23.1192 2.20445 21.3437 2.20445Z" fill="#202632"/>
<path d="M31.2693 13.3425H30.2498C27.7269 13.3425 25.4568 12.3847 24.1802 10.779L25.8969 9.40887C26.6028 10.2946 27.8141 10.8902 29.2454 11.0801C29.3936 9.01617 29.3936 5.61273 26.6551 3.7692L27.8794 1.94531C32.0014 4.71824 31.5656 9.7623 31.3783 11.9156L31.2693 13.3447V13.3425Z" fill="#202632"/>
<path d="M20.9952 25.9186C15.3941 25.9186 10.8364 21.3545 10.8364 15.7453V13.9629H13.0325V15.7453C13.0325 20.1436 16.6054 23.7194 20.9952 23.7194C25.3851 23.7194 28.9602 20.1415 28.9602 15.7453V14.6632H31.154V15.7453C31.154 21.3545 26.5964 25.9186 20.9952 25.9186Z" fill="#202632"/>
</svg>
