<svg width="66" height="48" viewBox="0 0 66 48" fill="none" xmlns="http://www.w3.org/2000/svg">
<path d="M8.48999 40.6001H5.98999V6.58008H14.31V9.08008H8.48999V40.6001Z" fill="#202632"/>
<path d="M59.28 40.6001H56.78V9.08008H50.92V6.58008H59.28V40.6001Z" fill="#202632"/>
<path d="M62.32 47.0696H2.95999L0 39.3496H25.13V41.8496H3.64001L4.67999 44.5696H60.6L61.64 41.8496H40.15V39.3496H65.28L62.32 47.0696Z" fill="#202632"/>
<path d="M29.298 30.7153L29.2703 30.5465C28.9173 28.362 27.0571 26.7753 24.8459 26.7753H21.6432C19.4321 26.7753 17.5719 28.362 17.2189 30.5465L17.1931 30.7134L15.22 30.3956L15.2477 30.2268C15.7574 27.0652 18.4485 24.7715 21.6452 24.7715H24.8479C28.0447 24.7715 30.7358 27.0652 31.2454 30.2248L31.2732 30.3936L29.3 30.7114L29.298 30.7153Z" fill="#202632"/>
<path d="M23.2456 26.7778C20.8282 26.7778 18.8629 24.8077 18.8629 22.3889C18.8629 19.97 20.8301 18 23.2456 18C25.661 18 27.6282 19.97 27.6282 22.3889C27.6282 24.8077 25.661 26.7778 23.2456 26.7778ZM23.2456 19.9998C21.9308 19.9998 20.8599 21.0722 20.8599 22.3889C20.8599 23.7055 21.9308 24.7779 23.2456 24.7779C24.5604 24.7779 25.6312 23.7055 25.6312 22.3889C25.6312 21.0722 24.5604 19.9998 23.2456 19.9998Z" fill="#202632"/>
<path d="M27.1932 12.7173L25.22 12.3995L25.2477 12.2307C25.7574 9.06913 28.4485 6.77539 31.6452 6.77539H34.8479C38.0447 6.77539 40.7358 9.06912 41.2454 12.2287L41.2712 12.3995L39.298 12.7113L39.2722 12.5425C38.9192 10.36 37.0591 8.77322 34.8479 8.77322H31.6452C29.4341 8.77322 27.5739 10.36 27.2209 12.5445L27.1951 12.7113L27.1932 12.7173Z" fill="#202632"/>
<path d="M33.2456 8.77776C30.8282 8.77776 28.8629 6.80773 28.8629 4.38888C28.8629 1.97004 30.8301 0 33.2456 0C35.661 0 37.6282 1.97004 37.6282 4.38888C37.6282 6.80773 35.663 8.77776 33.2456 8.77776ZM33.2456 1.99982C31.9308 1.99982 30.8599 3.07222 30.8599 4.38888C30.8599 5.70555 31.9308 6.77794 33.2456 6.77794C34.5604 6.77794 35.6312 5.70555 35.6312 4.38888C35.6312 3.07222 34.5604 1.99982 33.2456 1.99982Z" fill="#202632"/>
<path d="M48.298 30.7173L48.2703 30.5485C47.9173 28.362 46.0571 26.7753 43.8459 26.7753H40.6432C38.4321 26.7753 36.5719 28.362 36.2189 30.5465L36.1912 30.7153L34.22 30.3936L34.2477 30.2248C34.7574 27.0652 37.4465 24.7715 40.6432 24.7715H43.8459C47.0427 24.7715 49.7338 27.0652 50.2434 30.2248L50.2692 30.3916L48.298 30.7134V30.7173Z" fill="#202632"/>
<path d="M42.2456 26.7778C39.8282 26.7778 37.861 24.8077 37.861 22.3889C37.861 19.97 39.8282 18 42.2456 18C44.663 18 46.6283 19.97 46.6283 22.3889C46.6283 24.8077 44.663 26.7778 42.2456 26.7778ZM42.2456 19.9998C40.9288 19.9998 39.8599 21.0722 39.8599 22.3889C39.8599 23.7055 40.9308 24.7779 42.2456 24.7779C43.5604 24.7779 44.6313 23.7055 44.6313 22.3889C44.6313 21.0722 43.5604 19.9998 42.2456 19.9998Z" fill="#202632"/>
</svg>
