<svg width="15" height="16" viewBox="0 0 15 16" fill="none" xmlns="http://www.w3.org/2000/svg">
<path d="M4.03674 2.57265C2.537 3.43852 1.36788 4.86511 0.884834 6.66787C-0.0812631 10.2734 2.05874 13.968 5.66426 14.9341C9.26979 15.9002 12.9704 13.7706 13.9365 10.1651C14.7518 7.12238 13.3514 4.0281 10.7317 2.54802L10.2771 4.24474C11.9985 5.42292 12.8755 7.59885 12.305 9.72791C11.5816 12.428 8.79929 14.0343 6.09922 13.3108C3.39916 12.5874 1.79281 9.80508 2.51629 7.10502C2.87913 5.75091 3.76547 4.69445 4.89067 4.0517L6.81351 7.38216L8.34353 1.67205L2.63343 0.142036L4.03674 2.57265Z" fill="#747B90"/>
</svg>
