<svg width="50" height="58" viewBox="0 0 50 58" fill="none" xmlns="http://www.w3.org/2000/svg">
<path d="M49.58 57.7892H44.47V26.7092H33.1V47.1892H18.83V8.19922H5.28V57.7892H0V55.2892H2.78V5.69922H21.33V44.6892H30.6V24.2092H46.97V55.2892H49.58V57.7892Z" fill="white"/>
<path d="M31.8499 33.2695H20.08V35.7695H31.8499V33.2695Z" fill="white"/>
<path d="M41.3899 29.8594H36.1799V32.3594H41.3899V29.8594Z" fill="white"/>
<path d="M41.3899 34.9492H36.1799V37.4492H41.3899V34.9492Z" fill="white"/>
<path d="M41.3899 40.0293H36.1799V42.5293H41.3899V40.0293Z" fill="white"/>
<path d="M41.3899 45.1191H36.1799V47.6191H41.3899V45.1191Z" fill="white"/>
<path d="M41.3899 50.1992H36.1799V52.6992H41.3899V50.1992Z" fill="white"/>
<path d="M41.3899 55.2891H36.1799V57.7891H41.3899V55.2891Z" fill="white"/>
<path d="M31.86 57.791H29.36V53.9609H22.58V57.791H20.08V51.4609H31.86V57.791Z" fill="white"/>
<path d="M13.3101 11.4102H10.8101V14.8502H13.3101V11.4102Z" fill="white"/>
<path d="M13.3101 18.5391H10.8101V21.9791H13.3101V18.5391Z" fill="white"/>
<path d="M13.3101 25.6699H10.8101V29.1099H13.3101V25.6699Z" fill="white"/>
<path d="M13.3101 32.8008H10.8101V36.2408H13.3101V32.8008Z" fill="white"/>
<path d="M13.3101 39.9297H10.8101V43.3697H13.3101V39.9297Z" fill="white"/>
<path d="M13.3101 47.0703H10.8101V50.5103H13.3101V47.0703Z" fill="white"/>
<path d="M13.3101 54.1992H10.8101V57.6392H13.3101V54.1992Z" fill="white"/>
<path d="M13.3101 0H10.8101V6.95001H13.3101V0Z" fill="white"/>
</svg>
