<svg width="18" height="21" viewBox="0 0 18 21" fill="none" xmlns="http://www.w3.org/2000/svg">
<path d="M16 2.70536H15V0.707031H13V2.70536H5V0.707031H3V2.70536H2C0.89 2.70536 0.00999999 3.60461 0.00999999 4.70369L0 18.692C0 19.7911 0.89 20.6903 2 20.6903H16C17.1 20.6903 18 19.7911 18 18.692V4.70369C18 3.60461 17.1 2.70536 16 2.70536ZM16 18.692H2V8.70035H16V18.692ZM16 6.70202H2V4.70369H16V6.70202ZM6 12.697H4V10.6987H6V12.697ZM10 12.697H8V10.6987H10V12.697ZM14 12.697H12V10.6987H14V12.697ZM6 16.6937H4V14.6953H6V16.6937ZM10 16.6937H8V14.6953H10V16.6937ZM14 16.6937H12V14.6953H14V16.6937Z" fill="#7C8A9F"/>
</svg>
