<svg width="143" height="143" viewBox="0 0 143 143" fill="none" xmlns="http://www.w3.org/2000/svg">
<path d="M143 71.4677C143 31.9846 111.021 0.0273438 71.5 0.0273438C31.9842 0.0273438 0 31.979 0 71.4677C0 109.938 30.7888 142.276 70.3524 142.894C71.0244 142.924 72.484 142.896 72.5122 142.896C72.5239 142.896 72.5736 142.895 72.5867 142.895C111.617 142.317 143 110.538 143 71.4677ZM71.5 4.2133C108.7 4.2133 138.811 34.293 138.811 71.4677C138.811 86.9635 133.597 101.657 124.005 113.556C123.839 106.056 118.972 99.5417 111.784 97.2676L98.2323 92.9807C97.4654 92.3249 97.6673 92.6073 85.1914 86.431V80.6301C90.6307 76.7713 94.3973 70.6796 95.09 63.6555C97.6726 63.218 99.6459 60.9665 99.6459 58.2635C99.6459 54.2544 99.6459 41.0745 99.6459 36.9623C99.6459 32.272 95.827 28.4564 91.1329 28.4564H90.9167C90.8765 28.4564 90.8438 28.4237 90.8438 28.3836C90.8438 23.6933 87.025 19.8777 82.3308 19.8777H60.2128C50.9125 19.8777 43.3463 27.4375 43.3463 36.7301C43.3463 37.886 44.2842 38.8231 45.441 38.8231C46.5979 38.8231 47.5358 37.886 47.5358 36.7301C47.5358 29.7457 53.2225 24.0637 60.2128 24.0637H82.3308C84.7149 24.0637 86.6544 26.0015 86.6544 28.3836C86.6544 30.7319 88.5664 32.6424 90.9167 32.6424H91.1329C93.517 32.6424 95.4564 34.5802 95.4564 36.9623V48.8733H93.1162C91.8085 48.8733 90.7447 47.8103 90.7447 46.504V44.0619C90.7447 39.42 86.2092 36.1452 81.7985 37.6019C75.1574 39.795 67.842 39.7956 61.1923 37.6008C56.7808 36.1452 52.2469 39.42 52.2469 44.0611V46.504C52.2469 47.8106 51.1831 48.8735 49.8757 48.8735H47.5355V46.403C47.5355 45.2471 46.5976 44.31 45.4408 44.31C44.2839 44.31 43.346 45.2471 43.346 46.403V58.2638C43.346 60.967 45.319 63.2182 47.9019 63.6561C48.5943 70.6804 52.3612 76.7718 57.8002 80.6307V86.4338C45.35 92.5978 45.5145 92.3383 44.7612 92.9835L31.2162 97.2682C24.0285 99.5423 19.1617 106.057 18.995 113.556C9.40309 101.657 4.18945 86.9635 4.18945 71.4677C4.18945 34.298 34.2943 4.2133 71.5 4.2133ZM47.4844 109.164L49.1124 107.54C50.8116 105.845 51.2136 103.274 50.1128 101.142L47.5302 96.1386L55.9946 91.9836C55.0938 95.7479 55.1231 99.8847 55.5569 103.762C55.5572 103.765 55.5577 103.768 55.558 103.771C56.6414 113.438 60.5909 124.404 64.538 133.294C58.0379 126.759 49.3512 117.145 47.1635 110.48C47.0113 110.017 47.1344 109.513 47.4844 109.164ZM47.5352 53.0592H49.8754C53.4932 53.0592 56.4361 50.1184 56.4361 46.5037V44.0608C56.4361 42.2829 58.1694 41.012 59.8863 41.578C67.3753 44.0496 75.6241 44.0494 83.1132 41.5763C84.8099 41.0162 86.5552 42.2754 86.5552 44.0619V46.504C86.5552 50.1187 89.4984 53.0592 93.1162 53.0592H95.4564V58.2635C95.4564 58.9712 94.8802 59.5466 94.1719 59.5466C92.4866 59.5466 91.0829 60.8683 90.9765 62.5558C90.3302 72.796 81.7734 80.8174 71.4958 80.8174C61.2185 80.8174 52.6614 72.796 52.0151 62.5558C51.9087 60.8685 50.505 59.5466 48.8197 59.5466C48.1114 59.5466 47.5355 58.9712 47.5355 58.2635V53.0592H47.5352ZM71.498 138.243C70.1387 135.519 68.3032 131.638 66.4671 127.135L69.9069 113.617H73.0928L76.5304 127.131C74.691 131.643 72.8532 135.528 71.498 138.243ZM68.7445 100.859C67.5588 101.848 65.1267 103.878 63.2253 105.465C62.8284 105.796 62.26 105.794 61.8673 105.472L59.6533 102.737C59.2872 99.0682 59.3235 95.0123 60.4703 91.5393L68.7445 100.859ZM62.5418 109.903C63.0758 109.903 63.6096 109.817 64.1254 109.653L65.9928 112.011L63.8833 120.302C62.6751 116.821 61.5858 113.192 60.7851 109.594C61.3523 109.796 61.9458 109.903 62.5418 109.903ZM73.6721 109.431H69.2919L67.5873 107.279L71.7279 103.823L75.4733 107.023L73.6721 109.431ZM79.8487 105.254L74.6926 100.849L82.5495 91.6163C83.6693 95.065 83.7016 99.0601 83.3497 102.653L81.2092 105.274C80.812 105.594 80.2431 105.59 79.8487 105.254ZM71.4958 85.0034C74.8666 85.0034 78.0839 84.2898 81.002 83.0075V86.9724L71.71 97.8911L61.9894 86.9423V83.0072C64.9075 84.2898 68.1247 85.0034 71.4958 85.0034ZM79.1145 120.295L76.9982 111.977L78.9008 109.433C79.4343 109.609 79.9875 109.701 80.5417 109.701C81.1204 109.701 81.6969 109.599 82.2499 109.409C81.4505 113.045 80.3548 116.721 79.1145 120.295ZM23.1761 118.278V113.953C23.1761 108.121 26.9153 103.019 32.4803 101.259L43.648 97.7262C43.7597 97.9868 43.6449 97.7354 46.3895 103.061C46.6507 103.567 46.5554 104.176 46.1527 104.578L44.5247 106.201C43.0491 107.673 42.5347 109.813 43.1826 111.785C45.8564 119.929 56.3747 131.206 63.5937 138.262C48.2664 136.481 34.1195 129.548 23.1761 118.278ZM79.4016 138.263C83.2947 134.458 88.1743 129.402 92.2506 124.282C92.9709 123.377 92.8207 122.061 91.9152 121.341C91.0097 120.621 89.6923 120.771 88.9717 121.676C85.6824 125.808 81.8371 129.912 78.4486 133.313C82.4077 124.4 86.372 113.397 87.4453 103.7C87.4456 103.696 87.4462 103.693 87.4465 103.689C87.8718 99.8381 87.897 95.7364 87.001 91.9839L95.4653 96.1388L92.8827 101.142C91.782 103.274 92.1842 105.846 93.8834 107.541L95.5112 109.164C95.8611 109.513 95.984 110.018 95.8321 110.481C95.5039 111.48 95.0045 112.603 94.3479 113.818C93.7979 114.835 94.1775 116.105 95.1953 116.654C96.2133 117.203 97.4841 116.824 98.0338 115.807C98.8088 114.374 99.4073 113.021 99.8129 111.785C100.461 109.812 99.9464 107.673 98.4709 106.201L96.8431 104.578C96.4404 104.176 96.3451 103.566 96.606 103.061C99.3305 97.7739 99.2375 97.9826 99.3481 97.7248L110.519 101.259C116.085 103.019 119.824 108.121 119.824 113.953V118.278C108.905 129.523 94.7671 136.479 79.4016 138.263Z" fill="#CBD5E1"/>
</svg>
