<svg width="30" height="46" viewBox="0 0 30 46" fill="none" xmlns="http://www.w3.org/2000/svg">
<path d="M17.9028 45.59H13.7028C7.05282 45.59 1.64282 40.18 1.64282 33.53V19.56C1.64282 12.91 7.05282 7.5 13.7028 7.5H17.9028C24.5528 7.5 29.9628 12.91 29.9628 19.56V33.53C29.9628 40.18 24.5528 45.59 17.9028 45.59ZM13.7028 10C8.43282 10 4.14282 14.29 4.14282 19.56V33.53C4.14282 38.8 8.43282 43.09 13.7028 43.09H17.9028C23.1728 43.09 27.4628 38.8 27.4628 33.53V19.56C27.4628 14.29 23.1728 10 17.9028 10H13.7028Z" fill="black"/>
<path d="M24.1129 23.01H7.71289V25.51H24.1129V23.01Z" fill="black"/>
<path d="M17.1628 19.97H14.6628V24.26H17.1628V19.97Z" fill="black"/>
<path d="M17.1628 12.34H14.6628V17.18H17.1628V12.34Z" fill="black"/>
<path d="M17.1628 0H14.6628V9.44H17.1628V0Z" fill="black"/>
<path d="M7.06049 2.85425L6.30249 5.34131L8.69389 6.07015L9.45189 3.5831L7.06049 2.85425Z" fill="black"/>
<path d="M3.47216 3.91955L1.71057 5.69348L3.96701 7.93422L5.72859 6.16029L3.47216 3.91955Z" fill="black"/>
<path d="M2.79351 8.38938L0 8.77502L0.341883 11.2515L3.13539 10.8659L2.79351 8.38938Z" fill="black"/>
</svg>
