<svg width="47" height="37" viewBox="0 0 47 37" fill="none" xmlns="http://www.w3.org/2000/svg">
<g clip-path="url(#clip0_2229_14756)">
<path d="M30.1398 15H23.7998V17.5H30.1398V15Z" fill="white"/>
<path d="M36.2798 16.24C36.2798 17.48 35.2798 18.48 34.0398 18.48C32.7998 18.48 31.7998 17.48 31.7998 16.24C31.7998 15 32.7998 14 34.0398 14C35.2798 14 36.2798 15 36.2798 16.24Z" fill="white"/>
<path d="M40.19 2.24C40.19 3.48 39.19 4.48 37.95 4.48C36.71 4.48 35.71 3.48 35.71 2.24C35.71 1 36.71 0 37.95 0C39.19 0 40.19 1 40.19 2.24Z" fill="white"/>
<path d="M30.1398 32.72H23.7998V35.22H30.1398V32.72Z" fill="white"/>
<path d="M35.71 33.95C35.71 35.19 34.71 36.19 33.47 36.19C32.23 36.19 31.23 35.19 31.23 33.95C31.23 32.71 32.23 31.71 33.47 31.71C34.71 31.71 35.71 32.71 35.71 33.95Z" fill="white"/>
<path d="M46.5801 28.75C46.5801 29.99 45.5801 30.99 44.3401 30.99C43.1001 30.99 42.1001 29.99 42.1001 28.75C42.1001 27.51 43.1001 26.51 44.3401 26.51C45.5801 26.51 46.5801 27.51 46.5801 28.75Z" fill="white"/>
<path d="M33.7798 9.21003H23.7998V6.71003H32.7198L34.8098 4.53003L36.6098 6.26003L33.7798 9.21003Z" fill="white"/>
<path d="M40.7598 30H37.5098L35.0398 26.23H23.7998V23.73H36.3798L38.8598 27.5H40.7598V30Z" fill="white"/>
<path d="M14.4499 14.09C14.4499 15 13.7199 15.73 12.8099 15.73C11.8999 15.73 11.1699 15 11.1699 14.09C11.1699 13.18 11.8999 12.45 12.8099 12.45C13.7199 12.45 14.4499 13.18 14.4499 14.09Z" fill="white"/>
<path d="M18.58 35.22H5.33V24.27L0 21.36L5.33 13.05V2.13H7.83V13.79L3.55 20.45L7.83 22.79V32.72H18.58V35.22Z" fill="white"/>
</g>
<defs>
<clipPath id="clip0_2229_14756">
<rect width="46.58" height="36.19" fill="white"/>
</clipPath>
</defs>
</svg>
