<svg width="39" height="50" viewBox="0 0 39 50" fill="none" xmlns="http://www.w3.org/2000/svg">
<path d="M20.6699 12.03C17.3499 12.03 14.6499 9.33 14.6499 6.01C14.6499 2.69 17.3499 0 20.6699 0C23.9899 0 26.6899 2.7 26.6899 6.02C26.6899 9.34 23.9899 12.04 20.6699 12.04V12.03ZM20.6699 2.5C18.7299 2.5 17.1499 4.08 17.1499 6.02C17.1499 7.96 18.7299 9.54 20.6699 9.54C22.6099 9.54 24.1899 7.96 24.1899 6.02C24.1899 4.08 22.6099 2.5 20.6699 2.5Z" fill="#202632"/>
<path d="M28.77 47.7801H26.27V41.5801H14.77V47.7801H12.27V39.0801H28.77V47.7801Z" fill="#202632"/>
<path d="M20.8802 41.6101H16.1402L14.6302 27.6101H11.7402V16.8601L16.0302 12.3301L17.8402 14.0501L14.2402 17.8601V25.1101H16.8802L18.3902 39.1101H20.8802V41.6101Z" fill="#202632"/>
<path d="M24.5603 41.6101H19.8203V39.1101H22.3103L23.8203 25.1101H26.4603V17.8601L22.8603 14.0501L24.6703 12.3301L28.9603 16.8601V27.6101H26.0703L24.5603 41.6101Z" fill="#202632"/>
<path d="M33.5199 46.78H7.18994V49.28H33.5199V46.78Z" fill="#202632"/>
<path d="M36.2598 2.64014H34.2598V9.39014H36.2598V2.64014Z" fill="#202632"/>
<path d="M38.5599 4.96997H31.8999V6.96997H38.5599V4.96997Z" fill="#202632"/>
<path d="M6.75 20.54H0V22.54H6.75V20.54Z" fill="#202632"/>
<path d="M4.41992 18.1899H2.41992V24.8499H4.41992V18.1899Z" fill="#202632"/>
</svg>
