<svg width="45" height="38" viewBox="0 0 45 38" fill="none" xmlns="http://www.w3.org/2000/svg">
<path d="M24.65 36.26H22.15V2.5H2.5V36.26H0V0H24.65V36.26Z" fill="white"/>
<path d="M44.6801 36.25H42.1801V19.64H29.3501V36.25H26.8501V17.14H44.6801V36.25Z" fill="white"/>
<path d="M19.2004 13.42H14.4604V15.92H19.2004V13.42Z" fill="white"/>
<path d="M10.7202 13.42H5.91016V15.92H10.7202V13.42Z" fill="white"/>
<path d="M19.2004 19.4H14.4604V21.9H19.2004V19.4Z" fill="white"/>
<path d="M10.7202 19.4H5.91016V21.9H10.7202V19.4Z" fill="white"/>
<path d="M10.6502 26.05H5.91016V28.55H10.6502V26.05Z" fill="white"/>
<path d="M19.2099 26.05H14.3999V28.55H19.2099V26.05Z" fill="white"/>
<path d="M40.2401 21.58H37.1001V24.08H40.2401V21.58Z" fill="white"/>
<path d="M34.6202 21.58H31.4302V24.08H34.6202V21.58Z" fill="white"/>
<path d="M40.2401 26H37.1001V28.5H40.2401V26Z" fill="white"/>
<path d="M34.6202 26H31.4302V28.5H34.6202V26Z" fill="white"/>
<path d="M34.5702 30.9H31.4302V33.4H34.5702V30.9Z" fill="white"/>
<path d="M40.2501 30.9H37.0601V33.4H40.2501V30.9Z" fill="white"/>
<path d="M35.7603 35.01H7.07031V37.51H35.7603V35.01Z" fill="white"/>
</svg>
