<svg width="38" height="43" viewBox="0 0 38 43" fill="none" xmlns="http://www.w3.org/2000/svg">
<path d="M37.07 32.88H34.57V2.5H2.5V32.88H0V0H37.07V32.88Z" fill="black"/>
<path d="M7.64014 32.29H5.14014V40.6201H7.64014V32.29Z" fill="black"/>
<path d="M16.3999 32.0601H13.8999V35.5601H16.3999V32.0601Z" fill="black"/>
<path d="M16.3999 37.5701H13.8999V39.3701H16.3999V37.5701Z" fill="black"/>
<path d="M23.8201 32.0601H21.3201V42.89H23.8201V32.0601Z" fill="black"/>
<path d="M32.0601 32.0601H29.5601V36.5601H32.0601V32.0601Z" fill="black"/>
<path d="M32.0601 38.46H29.5601V41.23H32.0601V38.46Z" fill="black"/>
<path d="M11.3101 15.38C9.24006 15.38 7.56006 13.7 7.56006 11.63C7.56006 9.56 9.24006 7.88 11.3101 7.88C13.3801 7.88 15.0601 9.56 15.0601 11.63C15.0601 13.7 13.3801 15.38 11.3101 15.38ZM11.3101 10.38C10.6201 10.38 10.0601 10.94 10.0601 11.63C10.0601 12.32 10.6201 12.88 11.3101 12.88C12.0001 12.88 12.5601 12.32 12.5601 11.63C12.5601 10.94 12.0001 10.38 11.3101 10.38Z" fill="black"/>
<path d="M28.48 10.38H18.54V12.88H28.48V10.38Z" fill="black"/>
<path d="M28.4702 18.3301H8.2002V20.8301H28.4702V18.3301Z" fill="black"/>
</svg>
