<svg width="38" height="43" viewBox="0 0 38 43" fill="none" xmlns="http://www.w3.org/2000/svg">
<g clip-path="url(#clip0_2229_14683)">
<path d="M8.35023 34.2L1.49023 20.47L19.1302 15.1L37.0902 20.83L30.4002 34.2L28.1702 33.08L33.5502 22.33L19.1102 17.72L5.05023 22L10.5902 33.08L8.35023 34.2Z" fill="white"/>
<path d="M8.31006 16.41H5.81006V7.75H31.9101V15.89H29.4101V10.25H8.31006V16.41Z" fill="white"/>
<path d="M24.8499 10.25H12.1899V0H24.8499V10.25ZM14.6899 7.75H22.3499V2.5H14.6899V7.75Z" fill="white"/>
<path d="M20.54 17.22H18.04V32.61H20.54V17.22Z" fill="white"/>
<path d="M5.63 42.37C2.48 42.37 0 40.65 0 38.46C0 37.77 0.56 37.21 1.25 37.21C1.94 37.21 2.5 37.77 2.5 38.46C2.5 39.02 3.75 39.87 5.63 39.87C7.51 39.87 8.76 39.02 8.76 38.46C8.76 37.77 9.32 37.21 10.01 37.21C10.7 37.21 11.26 37.77 11.26 38.46C11.26 40.65 8.79 42.37 5.63 42.37Z" fill="white"/>
<path d="M14.4901 42.37C11.3401 42.37 8.87012 40.65 8.87012 38.46C8.87012 37.77 9.43012 37.21 10.1201 37.21C10.8101 37.21 11.3701 37.77 11.3701 38.46C11.3701 39.02 12.6201 39.87 14.4901 39.87C16.3601 39.87 17.6201 39.02 17.6201 38.46C17.6201 37.77 18.1801 37.21 18.8701 37.21C19.5601 37.21 20.1201 37.77 20.1201 38.46C20.1201 40.65 17.6501 42.37 14.4901 42.37Z" fill="white"/>
<path d="M32.1002 42.37C28.9402 42.37 26.4702 40.65 26.4702 38.46C26.4702 37.77 27.0302 37.21 27.7202 37.21C28.4102 37.21 28.9702 37.77 28.9702 38.46C28.9702 39.02 30.2202 39.87 32.1002 39.87C33.9802 39.87 35.2202 39.02 35.2202 38.46C35.2202 37.77 35.7802 37.21 36.4702 37.21C37.1602 37.21 37.7202 37.77 37.7202 38.46C37.7202 40.65 35.2502 42.37 32.1002 42.37Z" fill="white"/>
<path d="M23.2401 42.37C20.0901 42.37 17.6201 40.65 17.6201 38.46C17.6201 37.77 18.1801 37.21 18.8701 37.21C19.5601 37.21 20.1201 37.77 20.1201 38.46C20.1201 39.02 21.3701 39.87 23.2401 39.87C25.1101 39.87 26.3701 39.02 26.3701 38.46C26.3701 37.77 26.9301 37.21 27.6201 37.21C28.3101 37.21 28.8701 37.77 28.8701 38.46C28.8701 40.65 26.4001 42.37 23.2401 42.37Z" fill="white"/>
</g>
<defs>
<clipPath id="clip0_2229_14683">
<rect width="37.73" height="42.37" fill="white"/>
</clipPath>
</defs>
</svg>
