<svg width="48" height="36" viewBox="0 0 48 36" fill="none" xmlns="http://www.w3.org/2000/svg">
<path d="M39.8685 19.8016L38.0785 18.0516L39.1485 16.9616C39.5985 16.5116 39.6185 15.9116 39.3585 15.6616L26.0885 2.65159C25.7985 2.37159 25.1885 2.48159 24.7885 2.89159L23.9585 3.74159L22.1685 1.99159L22.9985 1.14159C24.3785 -0.268414 26.5485 -0.388414 27.8385 0.871586L41.1085 13.8816C42.3885 15.1416 42.3085 17.3116 40.9285 18.7216L39.8585 19.8116L39.8685 19.8016Z" fill="black"/>
<path d="M7.70827 17.9716C6.96827 17.2216 6.54828 16.2416 6.55828 15.2816C6.55828 14.5016 6.85829 13.7916 7.37829 13.2816L19.3183 1.63162C20.5183 0.451622 22.6183 0.641622 24.0083 2.05162L22.2283 3.80162C21.7583 3.32162 21.2083 3.28162 21.0683 3.42162L9.11828 15.0716C9.05828 15.1316 9.04829 15.2416 9.04829 15.3116C9.04829 15.5416 9.15828 15.9016 9.47828 16.2216L7.69828 17.9716H7.70827Z" fill="black"/>
<path d="M26.4784 35.4916C25.5784 35.4916 24.6284 35.1116 23.8584 34.3816L23.3184 33.8616L25.0584 32.0716L25.5884 32.5916C26.0684 33.0516 26.5784 33.0616 26.7084 32.9316L38.6484 21.2816C38.7084 21.2216 38.7184 21.1116 38.7184 21.0416C38.7184 20.8116 38.6084 20.4616 38.2884 20.1316L28.7784 10.4716L30.5584 8.72156L40.0584 18.3816C40.7984 19.1316 41.2184 20.1116 41.2084 21.0616C41.2084 21.8416 40.9084 22.5516 40.3884 23.0616L28.4484 34.7116C27.9084 35.2316 27.2084 35.4916 26.4684 35.4916H26.4784Z" fill="black"/>
<path d="M8.63861 25.1016C7.81861 25.1016 6.98861 24.7416 6.37861 24.1216L5.63861 23.3716C5.09861 22.8216 4.75861 22.1116 4.68861 21.3816C4.61861 20.5716 4.88861 19.8016 5.43861 19.2616L10.6186 14.1216C11.6586 13.0916 13.5786 13.1916 14.7386 14.3516L15.4886 15.1016C16.0986 15.7216 16.4486 16.5416 16.4486 17.3616C16.4486 18.0816 16.1686 18.7416 15.6886 19.2216L10.5086 24.3616C10.0286 24.8416 9.3686 25.1116 8.6486 25.1116L8.63861 25.1016ZM12.4786 15.8716L7.1986 21.0316C7.1986 21.0316 7.1686 21.1016 7.1786 21.1616C7.1786 21.2316 7.21861 21.4216 7.40861 21.6116L8.1486 22.3616C8.3886 22.6016 8.6886 22.6116 8.7286 22.5816L13.9086 17.4416C13.9286 17.2216 13.8686 17.0316 13.6986 16.8616L12.9586 16.1116C12.7886 15.9416 12.5886 15.8716 12.4686 15.8716H12.4786Z" fill="black"/>
<path d="M11.8085 28.5716C10.9885 28.5716 10.1585 28.2116 9.54848 27.5916L8.80848 26.8416C7.61848 25.6416 7.52848 23.7916 8.60848 22.7216L13.7885 17.5816C14.8385 16.5416 16.7585 16.6516 17.9085 17.8116L18.6485 18.5616C19.2585 19.1816 19.6085 20.0016 19.6085 20.8216C19.6085 21.5416 19.3385 22.2016 18.8485 22.6816L13.6685 27.8216C13.1885 28.3016 12.5285 28.5616 11.8185 28.5616L11.8085 28.5716ZM15.6485 19.3416L10.3685 24.5016C10.3685 24.5016 10.3285 24.8316 10.5785 25.0816L11.3185 25.8316C11.5685 26.0816 11.8685 26.0716 11.8985 26.0516L17.0785 20.9116C17.0985 20.6916 17.0385 20.5016 16.8685 20.3316L16.1185 19.5816C15.9485 19.4116 15.7585 19.3516 15.6385 19.3516L15.6485 19.3416Z" fill="black"/>
<path d="M15.3184 31.8316C14.4984 31.8316 13.6684 31.4716 13.0584 30.8516L12.3184 30.1016C11.7084 29.4916 11.3584 28.6716 11.3584 27.8516C11.3584 27.1316 11.6284 26.4716 12.1184 25.9816L17.3084 20.8416C18.3484 19.8116 20.2784 19.9116 21.4284 21.0716L22.1684 21.8216C22.7784 22.4316 23.1284 23.2516 23.1284 24.0716C23.1284 24.7916 22.8584 25.4516 22.3684 25.9316L17.1884 31.0716C16.7084 31.5516 16.0484 31.8216 15.3284 31.8216L15.3184 31.8316ZM19.1584 22.6016L13.8784 27.7616C13.8784 27.7616 13.8584 27.8016 13.8584 27.8616C13.8584 27.9816 13.9184 28.1716 14.0884 28.3416L14.8384 29.0916C15.0684 29.3316 15.3684 29.3616 15.4184 29.3116L20.5984 24.1716C20.6184 23.9516 20.5584 23.7616 20.3884 23.5916L19.6384 22.8316C19.4684 22.6616 19.2784 22.5916 19.1584 22.5916V22.6016Z" fill="black"/>
<path d="M18.7785 35.0716C17.9585 35.0716 17.1385 34.7116 16.5185 34.0916L15.7685 33.3416C15.2185 32.7916 14.8885 32.0816 14.8285 31.3516C14.7585 30.5416 15.0385 29.7716 15.5785 29.2316L20.7585 24.0916C21.7985 23.0516 23.7285 23.1616 24.8785 24.3216L25.6185 25.0716C26.2285 25.6816 26.5785 26.5016 26.5785 27.3216C26.5785 28.0416 26.3085 28.7016 25.8185 29.1916L20.6285 34.3316C20.1485 34.8116 19.4885 35.0816 18.7685 35.0816L18.7785 35.0716ZM22.6185 25.8416L17.3385 31.0016C17.3385 31.0016 17.3085 31.0616 17.3185 31.1316C17.3185 31.2016 17.3585 31.3916 17.5485 31.5816L18.2885 32.3316C18.5285 32.5716 18.8285 32.5816 18.8685 32.5516L24.0585 27.4116C24.0585 27.4116 24.0785 27.3716 24.0785 27.3116C24.0785 27.1916 24.0185 27.0016 23.8485 26.8316L23.0985 26.0716C22.9285 25.9016 22.7385 25.8316 22.6185 25.8316V25.8416Z" fill="black"/>
<path d="M22.3784 16.6516C20.2284 16.6516 19.1184 15.2217 18.8184 14.3817L18.7584 14.1017L17.9084 6.36165L23.5784 0.69165L25.3484 2.46165L20.5284 7.28165L21.2284 13.6317C21.3584 13.8517 21.7684 14.2817 22.7884 14.1317L22.8984 14.1117H23.0084C23.1184 14.1117 23.8784 13.9816 24.0084 12.3716L23.8784 7.96165L27.1984 4.89165L28.8984 6.73165L26.4184 9.02165L26.5184 12.4216V12.4817C26.2784 15.6917 24.2184 16.5716 23.0684 16.5917C22.8384 16.6216 22.6084 16.6317 22.3984 16.6317L22.3784 16.6516Z" fill="black"/>
<path d="M46.1308 9.24796L39.8823 15.3733L41.6324 17.1586L47.8808 11.0332L46.1308 9.24796Z" fill="black"/>
<path d="M1.75072 9.25307L0 11.0377L6.24629 17.1652L7.99701 15.3806L1.75072 9.25307Z" fill="black"/>
<path d="M32.7698 19.4242L31.0505 21.2391L35.6097 25.558L37.329 23.7431L32.7698 19.4242Z" fill="black"/>
<path d="M29.4762 22.7924L27.7566 24.6071L32.3077 28.9199L34.0273 27.1052L29.4762 22.7924Z" fill="black"/>
<path d="M26.5508 26.3655L24.7661 28.1162L28.6247 32.0496L30.4093 30.2989L26.5508 26.3655Z" fill="black"/>
</svg>
