<svg width="41" height="47" viewBox="0 0 41 47" fill="none" xmlns="http://www.w3.org/2000/svg">
<path d="M25.0899 38.45H14.4299L14.2999 37.34C14.2999 37.34 13.7799 33.08 11.3199 30.08C8.33989 27.46 6.62988 23.7 6.62988 19.75C6.62988 12.17 12.7999 6 20.3799 6C27.9599 6 34.1299 12.17 34.1299 19.75C34.1299 23.88 32.2999 27.74 29.0999 30.37C28.5499 31.09 28.0599 31.92 27.6399 32.85L25.3599 31.82C25.8899 30.66 26.5099 29.62 27.2199 28.72L27.4199 28.52C30.0899 26.37 31.6299 23.17 31.6299 19.76C31.6299 13.56 26.5799 8.51001 20.3799 8.51001C14.1799 8.51001 9.12988 13.56 9.12988 19.76C9.12988 23.02 10.5499 26.12 13.0299 28.27L13.1699 28.41C15.3499 31.01 16.2499 34.27 16.5899 35.95H25.0799V38.45H25.0899Z" fill="white"/>
<path d="M3.05 17.9202H0V20.4202H3.05V17.9202Z" fill="white"/>
<path d="M21.8901 0H19.3901V3.04999H21.8901V0Z" fill="white"/>
<path d="M7.18085 4.75665L5.41309 6.52441L7.56975 8.68108L9.33752 6.91331L7.18085 4.75665Z" fill="white"/>
<path d="M40.8 17.9202H37.75V20.4202H40.8V17.9202Z" fill="white"/>
<path d="M33.5959 4.7977L31.4385 6.95361L33.2056 8.722L35.363 6.56608L33.5959 4.7977Z" fill="white"/>
<path d="M25.8701 40.0303H14.5601V42.5303H25.8701V40.0303Z" fill="white"/>
<path d="M23.2998 43.8H16.8198V46.3H23.2998V43.8Z" fill="white"/>
</svg>
