<svg width="45" height="38" viewBox="0 0 45 38" fill="none" xmlns="http://www.w3.org/2000/svg">
<path d="M24.65 36.26H22.15V2.5H2.5V36.26H0V0H24.65V36.26Z" fill="black"/>
<path d="M44.6801 36.2501H42.1801V19.6401H29.3501V36.2501H26.8501V17.1401H44.6801V36.2501Z" fill="black"/>
<path d="M19.2001 19.3999H14.4601V21.8999H19.2001V19.3999Z" fill="black"/>
<path d="M10.72 19.3999H5.91003V21.8999H10.72V19.3999Z" fill="black"/>
<path d="M10.65 26.05H5.91003V28.55H10.65V26.05Z" fill="black"/>
<path d="M19.21 26.05H14.4V28.55H19.21V26.05Z" fill="black"/>
<path d="M40.2401 21.5801H37.1001V24.0801H40.2401V21.5801Z" fill="black"/>
<path d="M34.6201 21.5801H31.4301V24.0801H34.6201V21.5801Z" fill="black"/>
<path d="M40.2401 26H37.1001V28.5H40.2401V26Z" fill="black"/>
<path d="M34.6201 26H31.4301V28.5H34.6201V26Z" fill="black"/>
<path d="M34.5701 30.8999H31.4301V33.3999H34.5701V30.8999Z" fill="black"/>
<path d="M40.2501 30.8999H37.0601V33.3999H40.2501V30.8999Z" fill="black"/>
<path d="M35.7601 35.01H7.07007V37.51H35.7601V35.01Z" fill="black"/>
</svg>
