<svg width="44" height="39" viewBox="0 0 44 39" fill="none" xmlns="http://www.w3.org/2000/svg">
<path d="M44 38.7602H0V5.49023H11.5V7.99023H2.5V36.2602H41.5V7.99023H32.34V5.49023H44V38.7602Z" fill="black"/>
<path d="M13.51 21.0297C11.42 21.0297 9.70996 19.3297 9.70996 17.2297C9.70996 15.1297 11.41 13.4297 13.51 13.4297C15.61 13.4297 17.31 15.1297 17.31 17.2297C17.31 19.3297 15.6 21.0297 13.51 21.0297ZM13.51 15.4297C12.52 15.4297 11.71 16.2397 11.71 17.2297C11.71 18.2197 12.51 19.0297 13.51 19.0297C14.51 19.0297 15.31 18.2197 15.31 17.2297C15.31 16.2397 14.5 15.4297 13.51 15.4297Z" fill="black"/>
<path d="M20.5296 31.0695H6.82959L9.69962 20.7695H17.1796L20.5296 31.0695ZM9.4696 29.0695H17.7796L15.7296 22.7695H11.2196L9.4696 29.0695Z" fill="black"/>
<path d="M36.25 18.1406H24.5V20.1406H36.25V18.1406Z" fill="black"/>
<path d="M36.25 24.1211H24.5V26.1211H36.25V24.1211Z" fill="black"/>
<path d="M27.3099 9.53998H16.6899V0H27.3099V9.53998ZM19.1899 7.03998H24.8099V2.5H19.1899V7.03998Z" fill="black"/>
<path d="M23.1699 4.62109H21.1699V5.9111H23.1699V4.62109Z" fill="black"/>
<path d="M29.17 7.04102H14.75V9.54102H29.17V7.04102Z" fill="black"/>
</svg>
