<svg width="48" height="44" viewBox="0 0 48 44" fill="none" xmlns="http://www.w3.org/2000/svg">
<path d="M34.7604 12.35L32.8804 10.7001L38.7504 4.05005H43.2004V6.55005H39.8704L34.7604 12.35Z" fill="white"/>
<path d="M47.9701 4.05005H45.3301V6.55005H47.9701V4.05005Z" fill="white"/>
<path d="M43.2003 20.51H21.8403V0.039978L23.4803 0C27.7703 0 31.8603 1.35999 35.2803 3.92999L33.7803 5.92999C31.0203 3.85999 27.7703 2.69002 24.3303 2.52002V18.01H40.5803C40.3503 15.64 39.6203 13.32 38.4503 11.25L40.6303 10.02C42.2103 12.82 43.0903 16 43.1603 19.23L43.1903 20.51H43.2003Z" fill="white"/>
<path d="M19.7 43.4401H19.28C8.64999 43.2101 0 34.3801 0 23.7401C0 23.6301 0 23.5301 0 23.4301V23.28C0.25 12.72 8.72 4.28006 19.27 4.06006L20.55 4.03003V22.0601H39.35L39.38 23.4401C39.38 23.5401 39.38 23.6501 39.38 23.7501C39.38 34.6101 30.54 43.4501 19.68 43.4501L19.7 43.4401ZM18.06 6.63007C9.45001 7.44007 2.72 14.5501 2.51 23.3401V23.7501C2.51 33.0301 10.05 40.7401 19.33 40.9401H19.7C28.91 40.9401 36.45 33.6701 36.88 24.5601H18.06V6.63007Z" fill="white"/>
</svg>
