<svg width="49" height="46" viewBox="0 0 49 46" fill="none" xmlns="http://www.w3.org/2000/svg">
<g clip-path="url(#clip0_2229_14693)">
<path d="M15.98 20.69L14.21 18.92L27.23 5.91003L35.92 14.59L34.15 16.36L27.23 9.44003L15.98 20.69Z" fill="white"/>
<path d="M22.8999 29.3799L16.4199 22.8999L18.1899 21.1299L22.8999 25.8399L31.5499 17.1899L33.3199 18.9499L22.8999 29.3799Z" fill="white"/>
<path d="M20.7101 35.6099L7.39014 22.2799L12.4801 17.1899L14.2501 18.9599L10.9201 22.2799L20.7101 32.0699L23.1501 29.6299L16.4201 22.8999L18.1901 21.1299L26.6901 29.6299L20.7101 35.6099Z" fill="white"/>
<path d="M37.0199 19.3L23.6899 5.98L29.6699 0L42.9999 13.33L37.0199 19.31V19.3ZM27.2299 5.98L37.0199 15.77L39.4599 13.33L29.6699 3.54L27.2299 5.98Z" fill="white"/>
<path d="M42.4002 39.71L25.7202 23.03L31.3702 17.38L48.0602 34.06L42.4102 39.71H42.4002ZM29.2502 23.03L42.4002 36.18L44.5102 34.07L31.3602 20.92L29.2502 23.03Z" fill="white"/>
<path d="M22.55 42.71H0V45.21H22.55V42.71Z" fill="white"/>
<path d="M7.32593 31.4851L7.31982 33.9851L11.3298 33.9949L11.3359 31.4949L7.32593 31.4851Z" fill="white"/>
<path d="M12.3166 35.1566L10.9277 38.467L13.2331 39.4342L14.6219 36.1238L12.3166 35.1566Z" fill="white"/>
</g>
<defs>
<clipPath id="clip0_2229_14693">
<rect width="48.05" height="45.21" fill="white"/>
</clipPath>
</defs>
</svg>
