<svg width="38" height="43" viewBox="0 0 38 43" fill="none" xmlns="http://www.w3.org/2000/svg">
<path d="M28.3499 31.2402H8.10986V33.7402H28.3499V31.2402Z" fill="black"/>
<path d="M14.94 30.84L8.5 24.7899L25.96 6.20996L32.4 12.2599L14.94 30.84ZM12.04 24.68L14.83 27.3L28.86 12.37L26.07 9.73996L12.04 24.67V24.68Z" fill="black"/>
<path d="M8.11002 33.0102C7.81002 33.0102 7.51002 32.9002 7.27002 32.6902C6.93002 32.3802 6.79002 31.9202 6.89002 31.4702L8.30002 25.5802C8.46002 24.9102 9.13002 24.4902 9.81002 24.6502C10.48 24.8102 10.89 25.4902 10.73 26.1602L9.85002 29.8202L13.38 28.5902C14.03 28.3602 14.75 28.7102 14.97 29.3602C15.2 30.0102 14.85 30.7302 14.2 30.9502L8.51002 32.9402C8.38002 32.9902 8.24002 33.0102 8.10002 33.0102H8.11002Z" fill="black"/>
<path d="M27.83 42.47H0V0H37.04V42.12H34.54V2.5H2.5V39.97H27.83V42.47Z" fill="black"/>
</svg>
