<svg width="39" height="39" viewBox="0 0 39 39" fill="none" xmlns="http://www.w3.org/2000/svg">
<g clip-path="url(#clip0_2229_14719)">
<path d="M24.67 38.16H19.08C8.56 38.16 0 29.6 0 19.08C0 8.56 8.56 0 19.08 0C29.6 0 38.16 8.56 38.16 19.08H35.66C35.66 9.94 28.22 2.5 19.08 2.5C9.94 2.5 2.5 9.94 2.5 19.08C2.5 28.22 9.94 35.66 19.08 35.66H24.67V38.16Z" fill="white"/>
<path d="M36.81 30.53L33.41 27.15L30.02 30.53L28.25 28.76L33.4 23.62L38.58 28.76L36.81 30.53Z" fill="white"/>
<path d="M34.6602 25.96H32.1602V36.72H34.6602V25.96Z" fill="white"/>
<path d="M26.3098 14.42L23.5598 25.34H22.2698L19.8198 15.48C19.7598 15.73 19.6998 15.97 19.6498 16.18C19.5998 16.39 19.5398 16.62 19.4698 16.85C19.4098 17.08 19.3498 17.34 19.2798 17.61C19.2098 17.89 19.1298 18.2 19.0498 18.56L17.2998 25.34H15.9798L13.2998 14.42H14.5698L16.1098 21.13C16.1698 21.41 16.2098 21.66 16.2598 21.89C16.2998 22.11 16.3498 22.33 16.3898 22.55C16.4298 22.77 16.4698 23.01 16.5198 23.26C16.5698 23.51 16.6198 23.8 16.6698 24.13C16.7898 23.58 16.9198 23.04 17.0398 22.5C17.1598 21.96 17.2798 21.5 17.3998 21.1L19.1498 14.43H20.4798L22.2798 21.24C22.3098 21.38 22.3398 21.54 22.3898 21.72C22.4298 21.9 22.4798 22.11 22.5398 22.36C22.5898 22.59 22.6398 22.86 22.7098 23.16C22.7798 23.46 22.8398 23.78 22.9198 24.12C22.9798 23.8 23.0198 23.53 23.0698 23.29C23.1098 23.05 23.1498 22.83 23.1898 22.63C23.2398 22.42 23.2798 22.2 23.3298 21.99C23.3798 21.78 23.4398 21.54 23.5098 21.27L25.0898 14.43H26.3198L26.3098 14.42Z" fill="white"/>
<path d="M27.4998 17.89H12.0098V18.89H27.4998V17.89Z" fill="white"/>
</g>
<defs>
<clipPath id="clip0_2229_14719">
<rect width="38.58" height="38.16" fill="white"/>
</clipPath>
</defs>
</svg>
