<svg width="39" height="40" viewBox="0 0 39 40" fill="none" xmlns="http://www.w3.org/2000/svg">
<g clip-path="url(#clip0_2229_14711)">
<path d="M34.55 39.94H0V2.46997H15.96V4.96997H2.5V37.44H32.05V28.29H34.55V39.94Z" fill="white"/>
<path d="M26.1999 17.02C21.5099 17.02 17.6899 13.2 17.6899 8.51C17.6899 3.82 21.5099 0 26.1999 0C30.8899 0 34.7099 3.82 34.7099 8.51C34.7099 13.2 30.8899 17.02 26.1999 17.02ZM26.1999 2.5C22.8899 2.5 20.1899 5.2 20.1899 8.51C20.1899 11.82 22.8899 14.52 26.1999 14.52C29.5099 14.52 32.2099 11.82 32.2099 8.51C32.2099 5.2 29.5099 2.5 26.1999 2.5Z" fill="white"/>
<path d="M19.7701 26.53L18.7201 21.05L13.3501 21.95L19.4101 12.79L21.4901 14.17L18.6001 18.54L20.7201 18.19L21.0501 19.89L23.8501 15.51L25.9601 16.86L19.7701 26.53Z" fill="white"/>
<path d="M32.3502 26.53L26.1602 16.86L28.2702 15.51L31.0702 19.89L31.4002 18.19L33.5202 18.54L30.6302 14.17L32.7102 12.79L38.7702 21.95L33.4002 21.05L32.3502 26.53Z" fill="white"/>
<path d="M12.9701 31H9.6001V33H12.9701V31Z" fill="white"/>
<path d="M19.1698 31H15.7998V33H19.1698V31Z" fill="white"/>
<path d="M25.37 31H22V33H25.37V31Z" fill="white"/>
</g>
<defs>
<clipPath id="clip0_2229_14711">
<rect width="38.77" height="39.94" fill="white"/>
</clipPath>
</defs>
</svg>
