<svg width="43" height="45" viewBox="0 0 43 45" fill="none" xmlns="http://www.w3.org/2000/svg">
<g clip-path="url(#clip0_2229_14702)">
<path d="M24.3499 44.3H18.9299C12.3199 44.3 6.93994 38.92 6.93994 32.31V23.96H9.43994V32.31C9.43994 37.54 13.6999 41.8 18.9299 41.8H24.3499C29.5799 41.8 33.8399 37.54 33.8399 32.31V24.07H36.3399V32.31C36.3399 38.92 30.9599 44.3 24.3499 44.3Z" fill="white"/>
<path d="M17.4302 27.65H15.9302V30.28H17.4302V27.65Z" fill="white"/>
<path d="M28.0801 27.65H26.5801V30.28H28.0801V27.65Z" fill="white"/>
<path d="M21.62 19.06L0 9.08L21.64 0L42.89 9.53L21.62 19.06ZM6.2 9.19L21.63 16.31L36.78 9.52L21.61 2.72L6.2 9.19Z" fill="white"/>
<path d="M21.4502 26.56L6.99023 20.32V12.11H9.49023V18.68L21.4802 23.85L33.8402 18.85V12.11H36.3402V20.54L21.4502 26.56Z" fill="white"/>
<path d="M41.0898 10.04H38.5898V14.98H41.0898V10.04Z" fill="white"/>
<path d="M41.0898 16.75H38.5898V19.92H41.0898V16.75Z" fill="white"/>
</g>
<defs>
<clipPath id="clip0_2229_14702">
<rect width="42.89" height="44.3" fill="white"/>
</clipPath>
</defs>
</svg>
